<svg width="16" height="14" viewBox="0 0 16 14" fill="none" xmlns="http://www.w3.org/2000/svg">
<path d="M4.45218 1.24727C4.45218 0.760311 4.83478 0.377703 5.32174 0.377703H14.9565C15.4435 0.377703 15.8261 0.760311 15.8261 1.24727C15.8261 1.73422 15.4435 2.11683 14.9565 2.11683H5.32174C4.83478 2.11683 4.45218 1.73422 4.45218 1.24727ZM14.9565 5.94292H5.32174C4.83478 5.94292 4.45218 6.32553 4.45218 6.81248C4.45218 7.29944 4.83478 7.68205 5.32174 7.68205H14.9565C15.4435 7.68205 15.8261 7.29944 15.8261 6.81248C15.8261 6.32553 15.4435 5.94292 14.9565 5.94292ZM14.9565 11.5081H5.32174C4.83478 11.5081 4.45218 11.8907 4.45218 12.3777C4.45218 12.8647 4.83478 13.2473 5.32174 13.2473H14.9565C15.4435 13.2473 15.8261 12.8647 15.8261 12.3777C15.8261 11.8907 15.4435 11.5081 14.9565 11.5081ZM1.56522 5.66466C0.886958 5.66466 0.347828 6.22118 0.347828 6.89944C0.347828 7.5777 0.886958 8.13422 1.56522 8.13422C2.24348 8.13422 2.78261 7.5777 2.78261 6.89944C2.78261 6.22118 2.22609 5.66466 1.56522 5.66466ZM1.56522 0.0298767C0.886958 0.0298767 0.347828 0.586398 0.347828 1.26466C0.347828 1.94292 0.886958 2.49944 1.56522 2.49944C2.24348 2.49944 2.78261 1.94292 2.78261 1.26466C2.78261 0.586398 2.22609 0.0298767 1.56522 0.0298767ZM1.56522 11.1255C0.886958 11.1255 0.347828 11.682 0.347828 12.3603C0.347828 13.0386 0.886958 13.5951 1.56522 13.5951C2.24348 13.5951 2.78261 13.0386 2.78261 12.3603C2.78261 11.682 2.22609 11.1255 1.56522 11.1255Z" fill="#6A6A6A"/>
</svg>
